<!-- Spostato in public/icon.svg per evitare route dinamica su /icon.svg che in dev causava 500 -->
<svg width="32" height="32" viewBox="0 0 32 32" fill="none" xmlns="http://www.w3.org/2000/svg">
  <rect width="32" height="32" rx="6" fill="#2563EB"/>
  <path d="M9 21c1.8 0 3-1 3-2.5 0-1.2-.8-1.8-2.4-2.2l-.5-.1c-.7-.2-1-.4-1-.8 0-.6.6-1 1.5-1 .7 0 1.4.2 2 .6l.8-1.4c-.8-.5-1.8-.8-2.8-.8-1.8 0-3 1-3 2.5 0 1.3.9 1.9 2.4 2.3l.5.1c.7.2 1 .4 1 .8 0 .6-.6 1-1.6 1-.9 0-1.7-.3-2.4-.8l-.8 1.4c.9.6 2 .9 3.3.9Zm9.2 0c2.1 0 3.6-1.4 3.6-3.5S20.3 14 18.2 14c-2.1 0-3.6 1.4-3.6 3.5s1.5 3.5 3.6 3.5Zm0-1.6c-1.1 0-1.9-.8-1.9-1.9s.8-1.9 1.9-1.9 1.9.8 1.9 1.9-.8 1.9-1.9 1.9Z" fill="white"/>
</svg>